USFL
nRows=222
nColumns=2
inDegrees=yes
endheader
time	tib_ant_r	
2.66129	 75.855372	
2.69456	 75.857573	
2.72782	 75.852595	
2.76109	 75.856795	
2.79435	 75.854615	
2.82762	 75.847539	
2.86089	 75.857599	
2.89415	 75.851132	
2.92742	 75.866499	
2.96069	 75.870015	
2.99395	 75.877854	
3.02722	 75.852145	
3.06048	 75.849916	
3.09375	 75.850711	
3.12702	 75.831271	
3.16028	 75.826226	
3.19355	 75.834216	
3.22681	 75.807194	
3.26008	 75.813444	
3.29335	 75.848004	
3.32661	 75.892997	
3.35988	 75.882389	
3.39315	 75.921485	
3.42641	 75.946271	
3.45968	 75.930487	
3.49294	 75.896638	
3.52621	 75.899883	
3.55948	 75.917040	
3.59274	 75.927129	
3.62601	 75.911731	
3.65927	 75.931832	
3.69254	 75.948760	
3.72581	 75.960024	
3.75907	 75.947622	
3.79234	 75.927664	
3.8256	 75.925506	
3.85887	 75.931232	
3.89214	 75.928940	
3.9254	 75.942015	
3.95867	 75.923355	
3.99194	 75.940182	
4.0252	 75.903143	
4.05847	 75.889853	
4.09173	 75.898187	
4.125	 75.891632	
4.15827	 75.881251	
4.19153	 75.853592	
4.2248	 75.855070	
4.25806	 75.852859	
4.29133	 75.838714	
4.3246	 75.834274	
4.35786	 75.832085	
4.39113	 75.829834	
4.4244	 75.836677	
4.45766	 75.824992	
4.49093	 75.839077	
4.52419	 76.003343	
4.55746	 76.080639	
4.59073	 76.417534	
4.62399	 76.766432	
4.65726	 76.486666	
4.69052	 76.126940	
4.72379	 76.497577	
4.75706	 76.486868	
4.79032	 76.917505	
4.82359	 48.855895	
4.85685	 48.657784	
4.89012	 48.725918	
4.92339	 48.258618	
4.95665	 47.915571	
4.98992	 47.789596	
5.02319	 47.498743	
5.05645	 47.166779	
5.08972	 47.075234	
5.12298	 46.869750	
5.15625	 46.683611	
5.18952	 46.609487	
5.22278	 46.596790	
5.25605	 46.588714	
5.28931	 46.605683	
5.32258	 46.654004	
5.35585	 46.640074	
5.38911	 46.679893	
5.42238	 46.640922	
5.45565	 46.633421	
5.48891	 46.613900	
5.52218	 46.623940	
5.55544	 46.548684	
5.58871	 46.517275	
5.62198	 46.512519	
5.65524	 46.574483	
5.68851	 46.623482	
5.72177	 46.624976	
5.75504	 46.690767	
5.78831	 46.727565	
5.82157	 46.738269	
5.85484	 46.759875	
5.8881	 46.817814	
5.92137	 46.823427	
5.95464	 46.840386	
5.9879	 46.841301	
6.02117	 46.880661	
6.05444	 46.924897	
6.0877	 46.935199	
6.12097	 46.871114	
6.15423	 46.842984	
6.1875	 46.818686	
6.22077	 46.856102	
6.25403	 46.826488	
6.2873	 46.803055	
6.32056	 46.826613	
6.35383	 46.790427	
6.3871	 46.851579	
6.42036	 46.914215	
6.45363	 46.915562	
6.4869	 47.027583	
6.52016	 47.015190	
6.55343	 46.997346	
6.58669	 47.081613	
6.61996	 47.095060	
6.65323	 47.076504	
6.68649	 47.102518	
6.71976	 47.095979	
6.75302	 47.139694	
6.78629	 47.161700	
6.81956	 47.141814	
6.85282	 47.190138	
6.88609	 47.188506	
6.91935	 47.201004	
6.95262	 47.260546	
6.98589	 47.266839	
7.01915	 47.317421	
7.05242	 47.302530	
7.08569	 47.300631	
7.11895	 47.331653	
7.15222	 47.383305	
7.18548	 47.369993	
7.21875	 47.443188	
7.25202	 47.494659	
7.28528	 47.492883	
7.31855	 47.559511	
7.35181	 47.542779	
7.38508	 47.547497	
7.41835	 47.591176	
7.45161	 47.582959	
7.48488	 47.525313	
7.51815	 47.512195	
7.55141	 47.511474	
7.58468	 47.611365	
7.61794	 47.618499	
7.65121	 47.616938	
7.68448	 47.713281	
7.71774	 47.732295	
7.75101	 47.779224	
7.78427	 47.822379	
7.81754	 47.817420	
7.85081	 47.854649	
7.88407	 47.871860	
7.91734	 47.842429	
7.9506	 47.921944	
7.98387	 47.994762	
8.01714	 47.988661	
8.0504	 48.017906	
8.08367	 48.062883	
8.11694	 48.028946	
8.1502	 48.054443	
8.18347	 48.067732	
8.21673	 48.017130	
8.25	 47.967400	
8.28327	 47.978096	
8.31653	 47.905794	
8.3498	 47.812236	
8.38306	 47.797730	
8.41633	 47.728427	
8.4496	 47.713274	
8.48286	 47.696789	
8.51613	 47.716780	
8.5494	 47.711056	
8.58266	 47.814144	
8.61593	 47.847475	
8.64919	 47.862293	
8.68246	 47.857831	
8.71573	 47.816967	
8.74899	 47.810003	
8.78226	 47.812255	
8.81552	 47.876185	
8.84879	 47.858888	
8.88206	 47.806994	
8.91532	 47.856702	
8.94859	 47.904317	
8.98185	 47.926147	
9.01512	 47.959578	
9.04839	 48.049847	
9.08165	 48.139463	
9.11492	 48.118746	
9.14819	 48.373767	
9.18145	 48.415978	
9.21472	 48.655249	
9.24798	 48.856042	
9.28125	 48.830435	
9.31452	 49.092031	
9.34778	 49.410797	
9.38105	 49.528399	
9.41431	 49.910024	
9.44758	 50.036379	
9.48085	 49.830957	
9.51411	 49.563406	
9.54738	 49.486092	
9.58065	 65.540718	
9.61391	 65.837589	
9.64718	 66.072186	
9.68044	 66.322392	
9.71371	 66.494236	
9.74698	 66.547231	
9.78024	 66.626204	
9.81351	 66.700894	
9.84677	 66.784294	
9.88004	 66.845818	
9.91331	 66.807394	
9.94657	 66.807564	
9.97984	 66.788688	
10.0131	 66.883457	
